<svg width="24" height="25" viewBox="0 0 24 25" fill="none" xmlns="http://www.w3.org/2000/svg">
<path d="M22 12.7275C22 7.20469 17.5228 2.72754 12 2.72754C6.47715 2.72754 2 7.20469 2 12.7275C2 18.2503 6.47715 22.7275 12 22.7275" stroke="#141B34" stroke-width="1.5" stroke-linecap="round"/>
<path d="M20 6.42653C19.0653 6.4939 17.8681 6.85578 17.0379 7.93031C15.5385 9.87115 14.039 10.0331 13.0394 9.38615C11.5399 8.41574 12.8 6.8439 11.0401 5.98969C9.89313 5.43296 9.73321 3.91799 10.3716 2.72754" stroke="#141B34" stroke-width="1.5" stroke-linejoin="round"/>
<path d="M2 11.7275C2.7625 12.3896 3.83046 12.9957 5.08874 12.9957C7.68843 12.9957 8.20837 13.4924 8.20837 15.4793C8.20837 17.4662 8.20837 17.4662 8.72831 18.9563C9.06651 19.9256 9.18472 20.8949 8.5106 21.7275" stroke="#141B34" stroke-width="1.5" stroke-linejoin="round"/>
<path d="M19.8988 20.6563L22 22.7275M21.1083 17.7735C21.1083 20.008 19.2932 21.8194 17.0541 21.8194C14.8151 21.8194 13 20.008 13 17.7735C13 15.539 14.8151 13.7275 17.0541 13.7275C19.2932 13.7275 21.1083 15.539 21.1083 17.7735Z" stroke="#141B34" stroke-width="1.5" stroke-linecap="round"/>
</svg>
